<svg xmlns="http://www.w3.org/2000/svg" viewBox="0 0 900 520" role="img" aria-labelledby="title">
  <title id="title">Interface interne LogisZEN</title>
  <rect width="900" height="520" fill="#f6f4ee"/>
  <rect y="0" width="900" height="34" fill="#1f2528"/>
  <g fill="#aeb4b4" font-family="Inter, Arial, sans-serif" font-size="11" font-weight="700">
    <text x="12" y="22">HomeZEN</text>
    <text x="82" y="22">SMI</text>
    <text x="126" y="22">ProductZEN</text>
    <text x="213" y="22">FabriZEN</text>
    <text x="290" y="22">StcTcsZEN</text>
    <text x="380" y="22">ComZEN</text>
    <text x="454" y="22">LogisZEN</text>
  </g>
  <text x="18" y="76" fill="#171717" font-family="Inter, Arial, sans-serif" font-size="31" font-weight="800">LogisZEN</text>
  <line x1="0" x2="900" y1="90" y2="90" stroke="#d5d1c8"/>

  <defs>
    <filter id="shadow" x="-20%" y="-20%" width="140%" height="140%">
      <feDropShadow dx="0" dy="3" stdDeviation="4" flood-color="#171717" flood-opacity=".18"/>
    </filter>
  </defs>

  <g filter="url(#shadow)">
    <rect x="34" y="104" width="300" height="170" rx="7" fill="#fffdf8"/>
    <rect x="344" y="104" width="300" height="170" rx="7" fill="#fffdf8"/>
    <rect x="34" y="288" width="300" height="170" rx="7" fill="#fffdf8"/>
    <rect x="344" y="288" width="300" height="170" rx="7" fill="#fffdf8"/>
    <rect x="704" y="104" width="162" height="354" rx="7" fill="#fffdf8"/>
  </g>

  <g font-family="Inter, Arial, sans-serif">
    <text x="48" y="135" fill="#171717" font-size="22" font-weight="800">Imprévus</text>
    <text x="48" y="158" fill="#8a877f" font-size="15" font-weight="700">Suivi des aléas</text>
    <line x1="176" x2="176" y1="118" y2="258" stroke="#d8d4cb"/>
    <rect x="184" y="120" width="136" height="34" rx="6" fill="#fffdf8" stroke="#d8d4cb"/>
    <rect x="184" y="162" width="136" height="34" rx="6" fill="#fffdf8" stroke="#d8d4cb"/>
    <rect x="184" y="204" width="136" height="34" rx="6" fill="#fffdf8" stroke="#d8d4cb"/>
    <text x="206" y="141" fill="#171717" font-size="11" font-weight="800">Commandes</text>
    <text x="206" y="183" fill="#171717" font-size="11" font-weight="800">Réception</text>
    <text x="206" y="225" fill="#171717" font-size="11" font-weight="800">Livraison</text>

    <text x="358" y="135" fill="#171717" font-size="22" font-weight="800">Réassort</text>
    <text x="358" y="158" fill="#8a877f" font-size="15" font-weight="700">Demandes de suivi</text>
    <line x1="500" x2="500" y1="118" y2="258" stroke="#d8d4cb"/>
    <rect x="512" y="120" width="116" height="34" rx="6" fill="#fffdf8" stroke="#d8d4cb"/>
    <rect x="512" y="162" width="116" height="34" rx="6" fill="#fffdf8" stroke="#d8d4cb"/>
    <text x="532" y="141" fill="#171717" font-size="11" font-weight="800">Nouvelles</text>
    <text x="610" y="141" fill="#171717" font-size="14" font-weight="900">13</text>
    <text x="528" y="183" fill="#171717" font-size="11" font-weight="800">En attente</text>
    <text x="610" y="183" fill="#171717" font-size="14" font-weight="900">13</text>

    <text x="48" y="319" fill="#171717" font-size="22" font-weight="800">Stockage</text>
    <text x="48" y="342" fill="#8a877f" font-size="15" font-weight="700">Mouvements de stock</text>
    <line x1="176" x2="176" y1="302" y2="442" stroke="#d8d4cb"/>
    <rect x="184" y="304" width="136" height="34" rx="6" fill="#fffdf8" stroke="#d8d4cb"/>
    <rect x="184" y="346" width="136" height="34" rx="6" fill="#fffdf8" stroke="#d8d4cb"/>
    <text x="204" y="325" fill="#171717" font-size="11" font-weight="800">Inventaire</text>
    <text x="296" y="325" fill="#171717" font-size="14" font-weight="900">13j</text>
    <text x="202" y="367" fill="#171717" font-size="11" font-weight="800">Mouvements</text>
    <text x="292" y="367" fill="#171717" font-size="14" font-weight="900">130</text>

    <text x="358" y="319" fill="#171717" font-size="22" font-weight="800">Réception</text>
    <text x="358" y="342" fill="#8a877f" font-size="15" font-weight="700">Suivi des livraisons</text>
    <line x1="500" x2="500" y1="302" y2="442" stroke="#d8d4cb"/>
    <rect x="512" y="304" width="116" height="34" rx="6" fill="#fffdf8" stroke="#d8d4cb"/>
    <rect x="512" y="346" width="116" height="34" rx="6" fill="#fffdf8" stroke="#d8d4cb"/>
    <text x="532" y="325" fill="#171717" font-size="11" font-weight="800">Attendues</text>
    <text x="610" y="325" fill="#171717" font-size="14" font-weight="900">13</text>
    <text x="528" y="367" fill="#171717" font-size="11" font-weight="800">Réceptionnées</text>
    <text x="604" y="367" fill="#171717" font-size="14" font-weight="900">130</text>

    <text x="716" y="133" fill="#171717" font-size="21" font-weight="800">Notes</text>
    <text x="716" y="154" fill="#8a877f" font-size="14" font-weight="700">Informations pratiques</text>
    <line x1="716" x2="852" y1="164" y2="164" stroke="#d8d4cb"/>
  </g>

  <g fill="#f26b21">
    <rect x="238" y="226" width="54" height="22" rx="4"/>
    <rect x="556" y="226" width="54" height="22" rx="4"/>
    <rect x="238" y="410" width="54" height="22" rx="4"/>
    <rect x="556" y="410" width="54" height="22" rx="4"/>
  </g>
  <g fill="#ffffff" font-family="Inter, Arial, sans-serif" font-size="10" font-weight="900">
    <text x="251" y="241">Accéder</text>
    <text x="569" y="241">Accéder</text>
    <text x="251" y="425">Accéder</text>
    <text x="569" y="425">Accéder</text>
  </g>

  <g>
    <circle cx="84" cy="218" r="21" fill="#d8453f"/>
    <circle cx="116" cy="206" r="17" fill="#f26b21"/>
    <rect x="62" y="232" width="28" height="20" fill="#d9a04c"/>
    <rect x="92" y="228" width="35" height="24" fill="#e4b465"/>
    <rect x="120" y="226" width="47" height="25" rx="3" fill="#e9eceb"/>
    <rect x="154" y="238" width="31" height="13" rx="3" fill="#cfd5d2"/>
    <circle cx="130" cy="254" r="6" fill="#333"/>
    <circle cx="171" cy="254" r="6" fill="#333"/>
  </g>
  <g>
    <rect x="378" y="193" width="56" height="66" rx="6" fill="#7567e8"/>
    <rect x="392" y="170" width="32" height="32" rx="16" fill="#f2b4a5"/>
    <rect x="397" y="199" width="24" height="42" fill="#2e4a85"/>
    <rect x="366" y="248" width="84" height="11" fill="#7567e8"/>
    <circle cx="407" cy="187" r="36" fill="#f7d7ce" opacity=".45"/>
  </g>
  <g>
    <rect x="66" y="358" width="78" height="42" fill="#8169df" opacity=".9"/>
    <rect x="76" y="345" width="64" height="22" fill="#9b83f2"/>
    <rect x="84" y="334" width="44" height="18" fill="#4c4b9b"/>
    <path d="M78 398h78l-20 32H58z" fill="#5f79d8" opacity=".85"/>
    <circle cx="106" cy="420" r="10" fill="#f2b4a5"/>
  </g>
  <g>
    <rect x="384" y="375" width="84" height="66" fill="#cfe1ef"/>
    <rect x="394" y="362" width="20" height="20" fill="#e5b968"/>
    <rect x="420" y="362" width="20" height="20" fill="#e5b968"/>
    <rect x="444" y="362" width="20" height="20" fill="#e5b968"/>
    <rect x="402" y="397" width="18" height="18" fill="#e5b968"/>
    <rect x="430" y="397" width="18" height="18" fill="#e5b968"/>
  </g>

  <g font-family="Inter, Arial, sans-serif" font-size="10" fill="#5f625f">
    <circle cx="728" cy="192" r="12" fill="#d9d9d4"/>
    <text x="747" y="196">Commande réceptionnée</text>
    <rect x="747" y="203" width="96" height="28" rx="4" fill="#fffdf8" stroke="#d8d4cb"/>
    <circle cx="728" cy="258" r="12" fill="#d9d9d4"/>
    <text x="747" y="262">Commande réceptionnée</text>
    <rect x="747" y="269" width="96" height="28" rx="4" fill="#fffdf8" stroke="#d8d4cb"/>
    <circle cx="728" cy="324" r="12" fill="#d9d9d4"/>
    <text x="747" y="328">Commande réceptionnée</text>
    <rect x="747" y="335" width="96" height="28" rx="4" fill="#fffdf8" stroke="#d8d4cb"/>
  </g>
</svg>
